<?xml version="1.0" encoding="UTF-8" standalone="no"?>
<!DOCTYPE svg PUBLIC "-//W3C//DTD SVG 1.1//EN"
 "http://www.w3.org/Graphics/SVG/1.1/DTD/svg11.dtd">
<!-- Generated by graphviz version 2.38.0 (20140413.2041)
 -->
<!-- Title: packages_autocrypt Pages: 1 -->
<svg width="668pt" height="332pt"
 viewBox="0.00 0.00 667.50 332.00" xmlns="http://www.w3.org/2000/svg" xmlns:xlink="http://www.w3.org/1999/xlink">
<g id="graph0" class="graph" transform="scale(1 1) rotate(0) translate(4 328)">
<title>packages_autocrypt</title>
<polygon fill="white" stroke="none" points="-4,4 -4,-328 663.5,-328 663.5,4 -4,4"/>
<!-- 0 -->
<g id="node1" class="node"><title>0</title>
<polygon fill="none" stroke="black" points="68,-108 0,-108 0,-72 68,-72 68,-108"/>
<text text-anchor="middle" x="34" y="-86.3" font-family="Times,serif" font-size="14.00">autocrypt</text>
</g>
<!-- 1 -->
<g id="node2" class="node"><title>1</title>
<polygon fill="none" stroke="black" points="440,-252 324,-252 324,-216 440,-216 440,-252"/>
<text text-anchor="middle" x="382" y="-230.3" font-family="Times,serif" font-size="14.00">autocrypt.acmime</text>
</g>
<!-- 4 -->
<g id="node5" class="node"><title>4</title>
<polygon fill="none" stroke="black" points="486,-324 364,-324 364,-288 486,-288 486,-324"/>
<text text-anchor="middle" x="425" y="-302.3" font-family="Times,serif" font-size="14.00">autocrypt.constants</text>
</g>
<!-- 1&#45;&gt;4 -->
<g id="edge1" class="edge"><title>1&#45;&gt;4</title>
<path fill="none" stroke="black" d="M392.629,-252.303C397.628,-260.441 403.691,-270.311 409.212,-279.299"/>
<polygon fill="black" stroke="black" points="414.493,-287.896 405.424,-281.73 411.876,-283.635 409.259,-279.375 409.259,-279.375 409.259,-279.375 411.876,-283.635 413.093,-277.019 414.493,-287.896 414.493,-287.896"/>
</g>
<!-- 2 -->
<g id="node3" class="node"><title>2</title>
<polygon fill="none" stroke="black" points="310.5,-36 225.5,-36 225.5,-0 310.5,-0 310.5,-36"/>
<text text-anchor="middle" x="268" y="-14.3" font-family="Times,serif" font-size="14.00">autocrypt.cli</text>
</g>
<!-- 2&#45;&gt;0 -->
<g id="edge2" class="edge"><title>2&#45;&gt;0</title>
<path fill="none" stroke="black" d="M225.295,-30.349C187.448,-40.6016 130.78,-56.4289 82,-72 80.6051,-72.4453 79.1898,-72.9041 77.7626,-73.3728"/>
<polygon fill="black" stroke="black" points="68.2596,-76.572 76.3012,-69.1165 72.9983,-74.9767 77.737,-73.3813 77.737,-73.3813 77.737,-73.3813 72.9983,-74.9767 79.1728,-77.6461 68.2596,-76.572 68.2596,-76.572"/>
</g>
<!-- 3 -->
<g id="node4" class="node"><title>3</title>
<polygon fill="none" stroke="black" points="190.5,-324 77.5,-324 77.5,-288 190.5,-288 190.5,-324"/>
<text text-anchor="middle" x="134" y="-302.3" font-family="Times,serif" font-size="14.00">autocrypt.conflog</text>
</g>
<!-- 2&#45;&gt;3 -->
<g id="edge3" class="edge"><title>2&#45;&gt;3</title>
<path fill="none" stroke="black" d="M249.309,-36.3826C225.818,-59.1225 185.602,-101.139 161,-144 144.137,-173.378 142.009,-182.663 136,-216 132.322,-236.405 131.95,-259.866 132.428,-277.575"/>
<polygon fill="black" stroke="black" points="132.814,-287.78 127.939,-277.957 132.625,-282.784 132.436,-277.787 132.436,-277.787 132.436,-277.787 132.625,-282.784 136.933,-277.617 132.814,-287.78 132.814,-287.78"/>
</g>
<!-- 2&#45;&gt;4 -->
<g id="edge4" class="edge"><title>2&#45;&gt;4</title>
<path fill="none" stroke="black" d="M310.529,-32.4156C333.046,-41.0728 360.081,-54.0976 380,-72 435.107,-121.527 445.414,-144.276 464,-216 468.013,-231.488 468.99,-236.798 464,-252 460.686,-262.094 454.633,-271.849 448.268,-280.179"/>
<polygon fill="black" stroke="black" points="441.89,-287.993 444.727,-277.401 445.051,-284.12 448.213,-280.247 448.213,-280.247 448.213,-280.247 445.051,-284.12 451.699,-283.092 441.89,-287.993 441.89,-287.993"/>
</g>
<!-- 7 -->
<g id="node8" class="node"><title>7</title>
<polygon fill="none" stroke="black" points="371,-108 253,-108 253,-72 371,-72 371,-108"/>
<text text-anchor="middle" x="312" y="-86.3" font-family="Times,serif" font-size="14.00">autocrypt.message</text>
</g>
<!-- 2&#45;&gt;7 -->
<g id="edge5" class="edge"><title>2&#45;&gt;7</title>
<path fill="none" stroke="black" d="M278.876,-36.3034C283.992,-44.4411 290.195,-54.311 295.845,-63.2987"/>
<polygon fill="black" stroke="black" points="301.249,-71.8957 292.117,-65.8241 298.588,-67.6625 295.927,-63.4293 295.927,-63.4293 295.927,-63.4293 298.588,-67.6625 299.737,-61.0345 301.249,-71.8957 301.249,-71.8957"/>
</g>
<!-- 8 -->
<g id="node9" class="node"><title>8</title>
<polygon fill="none" stroke="black" points="280,-180 170,-180 170,-144 280,-144 280,-180"/>
<text text-anchor="middle" x="225" y="-158.3" font-family="Times,serif" font-size="14.00">autocrypt.storage</text>
</g>
<!-- 2&#45;&gt;8 -->
<g id="edge6" class="edge"><title>2&#45;&gt;8</title>
<path fill="none" stroke="black" d="M259.03,-36.2887C254.04,-46.4682 248.04,-59.7182 244,-72 237.305,-92.3548 232.371,-116.121 229.211,-133.972"/>
<polygon fill="black" stroke="black" points="227.515,-143.983 224.749,-133.371 228.35,-139.053 229.186,-134.123 229.186,-134.123 229.186,-134.123 228.35,-139.053 233.623,-134.875 227.515,-143.983 227.515,-143.983"/>
</g>
<!-- 9 -->
<g id="node10" class="node"><title>9</title>
<polygon fill="none" stroke="black" points="659.5,-180 534.5,-180 534.5,-144 659.5,-144 659.5,-180"/>
<text text-anchor="middle" x="597" y="-158.3" font-family="Times,serif" font-size="14.00">autocrypt.tests_data</text>
</g>
<!-- 2&#45;&gt;9 -->
<g id="edge7" class="edge"><title>2&#45;&gt;9</title>
<path fill="none" stroke="black" d="M310.712,-33.4807C313.841,-34.3823 316.961,-35.2336 320,-36 407.576,-58.085 441.524,-27.2935 520,-72 546.444,-87.0648 568.184,-114.731 581.741,-135.233"/>
<polygon fill="black" stroke="black" points="587.211,-143.8 578.037,-137.793 584.52,-139.586 581.83,-135.371 581.83,-135.371 581.83,-135.371 584.52,-139.586 585.622,-132.95 587.211,-143.8 587.211,-143.8"/>
</g>
<!-- 5 -->
<g id="node6" class="node"><title>5</title>
<polygon fill="none" stroke="black" points="268,-252 162,-252 162,-216 268,-216 268,-252"/>
<text text-anchor="middle" x="215" y="-230.3" font-family="Times,serif" font-size="14.00">autocrypt.crypto</text>
</g>
<!-- 5&#45;&gt;3 -->
<g id="edge8" class="edge"><title>5&#45;&gt;3</title>
<path fill="none" stroke="black" d="M194.978,-252.303C184.874,-261.035 172.464,-271.76 161.482,-281.25"/>
<polygon fill="black" stroke="black" points="153.792,-287.896 158.416,-277.952 157.575,-284.626 161.358,-281.357 161.358,-281.357 161.358,-281.357 157.575,-284.626 164.301,-284.762 153.792,-287.896 153.792,-287.896"/>
</g>
<!-- 5&#45;&gt;4 -->
<g id="edge9" class="edge"><title>5&#45;&gt;4</title>
<path fill="none" stroke="black" d="M266.103,-252.034C295.573,-261.858 332.813,-274.271 363.833,-284.611"/>
<polygon fill="black" stroke="black" points="373.668,-287.889 362.758,-288.996 368.924,-286.308 364.181,-284.727 364.181,-284.727 364.181,-284.727 368.924,-286.308 365.604,-280.458 373.668,-287.889 373.668,-287.889"/>
</g>
<!-- 6 -->
<g id="node7" class="node"><title>6</title>
<polygon fill="none" stroke="black" points="441.5,-36 328.5,-36 328.5,-0 441.5,-0 441.5,-36"/>
<text text-anchor="middle" x="385" y="-14.3" font-family="Times,serif" font-size="14.00">autocrypt.keyinfo</text>
</g>
<!-- 7&#45;&gt;1 -->
<g id="edge10" class="edge"><title>7&#45;&gt;1</title>
<path fill="none" stroke="black" d="M320.444,-108.129C332.531,-132.65 354.871,-177.968 369.055,-206.741"/>
<polygon fill="black" stroke="black" points="373.526,-215.811 365.069,-208.831 371.316,-211.326 369.105,-206.841 369.105,-206.841 369.105,-206.841 371.316,-211.326 373.141,-204.852 373.526,-215.811 373.526,-215.811"/>
</g>
<!-- 7&#45;&gt;4 -->
<g id="edge11" class="edge"><title>7&#45;&gt;4</title>
<path fill="none" stroke="black" d="M342.591,-108.168C375.915,-128.831 427.357,-166.955 449,-216 457.968,-236.323 450.155,-260.772 441.123,-278.898"/>
<polygon fill="black" stroke="black" points="436.37,-287.746 437.138,-276.807 438.736,-283.341 441.102,-278.936 441.102,-278.936 441.102,-278.936 438.736,-283.341 445.067,-281.066 436.37,-287.746 436.37,-287.746"/>
</g>
<!-- 7&#45;&gt;5 -->
<g id="edge12" class="edge"><title>7&#45;&gt;5</title>
<path fill="none" stroke="black" d="M311.026,-108.165C309.205,-127.216 303.982,-158.151 289,-180 280.802,-191.955 268.977,-202.148 257.178,-210.306"/>
<polygon fill="black" stroke="black" points="248.642,-215.883 254.552,-206.646 252.828,-213.148 257.014,-210.413 257.014,-210.413 257.014,-210.413 252.828,-213.148 259.475,-214.181 248.642,-215.883 248.642,-215.883"/>
</g>
<!-- 7&#45;&gt;8 -->
<g id="edge13" class="edge"><title>7&#45;&gt;8</title>
<path fill="none" stroke="black" d="M290.494,-108.303C279.537,-117.119 266.054,-127.968 254.175,-137.526"/>
<polygon fill="black" stroke="black" points="246.258,-143.896 251.228,-134.121 250.154,-140.761 254.049,-137.627 254.049,-137.627 254.049,-137.627 250.154,-140.761 256.87,-141.133 246.258,-143.896 246.258,-143.896"/>
</g>
<!-- 8&#45;&gt;3 -->
<g id="edge14" class="edge"><title>8&#45;&gt;3</title>
<path fill="none" stroke="black" d="M191.976,-180.109C177.925,-188.998 162.597,-201.134 153,-216 141.108,-234.419 136.526,-259.02 134.823,-277.689"/>
<polygon fill="black" stroke="black" points="134.119,-287.904 130.317,-277.619 134.463,-282.916 134.806,-277.928 134.806,-277.928 134.806,-277.928 134.463,-282.916 139.296,-278.237 134.119,-287.904 134.119,-287.904"/>
</g>
<!-- 8&#45;&gt;4 -->
<g id="edge15" class="edge"><title>8&#45;&gt;4</title>
<path fill="none" stroke="black" d="M241.95,-180.367C265.708,-204.615 306.92,-246.3 315,-252 332.485,-264.336 353.285,-275.184 372.066,-283.8"/>
<polygon fill="black" stroke="black" points="381.386,-287.972 370.42,-287.993 376.822,-285.929 372.259,-283.886 372.259,-283.886 372.259,-283.886 376.822,-285.929 374.097,-279.779 381.386,-287.972 381.386,-287.972"/>
</g>
<!-- 8&#45;&gt;5 -->
<g id="edge16" class="edge"><title>8&#45;&gt;5</title>
<path fill="none" stroke="black" d="M222.528,-180.303C221.426,-188.017 220.102,-197.288 218.873,-205.888"/>
<polygon fill="black" stroke="black" points="217.443,-215.896 214.403,-205.36 218.151,-210.946 218.858,-205.996 218.858,-205.996 218.858,-205.996 218.151,-210.946 223.313,-206.633 217.443,-215.896 217.443,-215.896"/>
</g>
<!-- 9&#45;&gt;4 -->
<g id="edge17" class="edge"><title>9&#45;&gt;4</title>
<path fill="none" stroke="black" d="M584.894,-180.327C570.871,-199.523 546.304,-230.589 520,-252 505.43,-263.86 487.838,-274.506 471.774,-283.09"/>
<polygon fill="black" stroke="black" points="462.526,-287.9 469.322,-279.293 466.962,-285.593 471.398,-283.286 471.398,-283.286 471.398,-283.286 466.962,-285.593 473.474,-287.278 462.526,-287.9 462.526,-287.9"/>
</g>
<!-- 10 -->
<g id="node11" class="node"><title>10</title>
<polygon fill="none" stroke="black" points="554.5,-36 459.5,-36 459.5,-0 554.5,-0 554.5,-36"/>
<text text-anchor="middle" x="507" y="-14.3" font-family="Times,serif" font-size="14.00">autocrypt.utils</text>
</g>
</g>
</svg>
